<svg xmlns="http://www.w3.org/2000/svg" viewBox="0 0 239.82 117.08"><defs><style>.cls-1{fill:#a09f9f;}.cls-2,.cls-3,.cls-4,.cls-5{fill:#fff;}.cls-2{opacity:0.7;}.cls-3{opacity:0.55;}.cls-4{opacity:0.45;}.cls-5{opacity:0.3;}</style></defs><title>Asset 1</title><g id="Layer_2" data-name="Layer 2"><g id="Layer_1-2" data-name="Layer 1"><polygon class="cls-1" points="1.44 114.78 0 111.5 64.1 58.54 0 5.58 1.44 2.3 2.42 0 83.26 16.03 119.91 58.54 83.26 101.05 2.42 117.08 1.44 114.78"/><polygon class="cls-2" points="1.44 2.3 2.42 0 83.26 16.03 56.09 28.24 1.44 2.3"/><polygon class="cls-3" points="64.1 58.54 0 5.58 1.44 2.3 56.09 28.24 64.1 58.54"/><polygon class="cls-4" points="56.09 28.24 83.26 16.03 119.91 58.54 56.09 28.24"/><polygon class="cls-5" points="64.1 58.54 56.09 28.24 119.91 58.54 64.1 58.54"/><polygon class="cls-4" points="1.44 114.78 2.42 117.08 83.26 101.05 56.09 88.84 1.44 114.78"/><polygon class="cls-3" points="64.1 58.54 0 111.5 1.44 114.78 56.09 88.84 64.1 58.54"/><polygon class="cls-5" points="56.09 88.84 83.26 101.05 119.91 58.54 56.09 88.84"/><polygon class="cls-4" points="64.1 58.54 56.09 88.84 119.91 58.54 64.1 58.54"/><polygon class="cls-1" points="238.38 114.77 239.82 111.5 175.72 58.54 239.82 5.58 238.38 2.3 237.4 0 156.56 16.02 119.91 58.53 156.56 101.05 237.4 117.07 238.38 114.77"/><polygon class="cls-2" points="238.38 2.3 237.4 0 156.56 16.02 183.73 28.24 238.38 2.3"/><polygon class="cls-3" points="175.72 58.54 239.82 5.58 238.38 2.3 183.73 28.24 175.72 58.54"/><polygon class="cls-4" points="183.73 28.24 156.56 16.02 119.91 58.53 183.73 28.24"/><polygon class="cls-5" points="175.72 58.54 183.73 28.24 119.91 58.54 175.72 58.54"/><polygon class="cls-4" points="238.38 114.77 237.4 117.07 156.56 101.05 183.73 88.83 238.38 114.77"/><polygon class="cls-3" points="175.72 58.54 239.82 111.5 238.38 114.77 183.73 88.83 175.72 58.54"/><polygon class="cls-5" points="183.73 88.83 156.56 101.05 119.91 58.53 183.73 88.83"/><polygon class="cls-4" points="175.72 58.54 183.73 88.83 119.91 58.53 175.72 58.54"/></g></g></svg>